<svg width="128" height="207" viewBox="0 0 128 207" fill="none" xmlns="http://www.w3.org/2000/svg">
<rect width="128" height="207" fill="#D9D9D9"/>
<path d="M17.9185 100.553H16.6856C16.6126 100.199 16.485 99.8872 16.3027 99.6187C16.1238 99.3502 15.905 99.1249 15.6465 98.9426C15.3913 98.757 15.1079 98.6178 14.7963 98.525C14.4848 98.4321 14.16 98.3857 13.8219 98.3857C13.2054 98.3857 12.647 98.5415 12.1465 98.8531C11.6493 99.1646 11.2533 99.6237 10.9583 100.23C10.6666 100.837 10.5208 101.581 10.5208 102.462C10.5208 103.344 10.6666 104.088 10.9583 104.695C11.2533 105.301 11.6493 105.76 12.1465 106.072C12.647 106.383 13.2054 106.539 13.8219 106.539C14.16 106.539 14.4848 106.493 14.7963 106.4C15.1079 106.307 15.3913 106.17 15.6465 105.987C15.905 105.802 16.1238 105.575 16.3027 105.306C16.485 105.034 16.6126 104.723 16.6856 104.372H17.9185C17.8257 104.892 17.6567 105.358 17.4114 105.769C17.1661 106.18 16.8612 106.529 16.4966 106.818C16.132 107.103 15.7227 107.32 15.2686 107.469C14.8179 107.618 14.3356 107.693 13.8219 107.693C12.9535 107.693 12.1813 107.48 11.5052 107.056C10.829 106.632 10.2971 106.029 9.90927 105.247C9.52149 104.464 9.3276 103.536 9.3276 102.462C9.3276 101.389 9.52149 100.461 9.90927 99.6784C10.2971 98.8962 10.829 98.2929 11.5052 97.8687C12.1813 97.4445 12.9535 97.2323 13.8219 97.2323C14.3356 97.2323 14.8179 97.3069 15.2686 97.4561C15.7227 97.6052 16.132 97.824 16.4966 98.1123C16.8612 98.3973 17.1661 98.7454 17.4114 99.1563C17.6567 99.564 17.8257 100.03 17.9185 100.553ZM22.8541 107.712C22.1647 107.712 21.5598 107.548 21.0394 107.22C20.5224 106.892 20.118 106.433 19.8264 105.843C19.538 105.253 19.3938 104.564 19.3938 103.775C19.3938 102.979 19.538 102.285 19.8264 101.692C20.118 101.099 20.5224 100.638 21.0394 100.31C21.5598 99.9816 22.1647 99.8176 22.8541 99.8176C23.5434 99.8176 24.1467 99.9816 24.6637 100.31C25.1841 100.638 25.5884 101.099 25.8768 101.692C26.1684 102.285 26.3143 102.979 26.3143 103.775C26.3143 104.564 26.1684 105.253 25.8768 105.843C25.5884 106.433 25.1841 106.892 24.6637 107.22C24.1467 107.548 23.5434 107.712 22.8541 107.712ZM22.8541 106.658C23.3777 106.658 23.8086 106.524 24.1467 106.256C24.4847 105.987 24.735 105.634 24.8974 105.197C25.0598 104.759 25.141 104.285 25.141 103.775C25.141 103.265 25.0598 102.789 24.8974 102.348C24.735 101.907 24.4847 101.551 24.1467 101.279C23.8086 101.007 23.3777 100.872 22.8541 100.872C22.3304 100.872 21.8995 101.007 21.5614 101.279C21.2234 101.551 20.9731 101.907 20.8107 102.348C20.6483 102.789 20.5671 103.265 20.5671 103.775C20.5671 104.285 20.6483 104.759 20.8107 105.197C20.9731 105.634 21.2234 105.987 21.5614 106.256C21.8995 106.524 22.3304 106.658 22.8541 106.658ZM34.0762 99.917L31.2523 107.553H30.0591L27.2353 99.917H28.508L30.6159 106.002H30.6955L32.8034 99.917H34.0762ZM38.5531 107.712C37.8173 107.712 37.1826 107.55 36.649 107.225C36.1187 106.897 35.7093 106.44 35.421 105.853C35.136 105.263 34.9934 104.577 34.9934 103.795C34.9934 103.013 35.136 102.323 35.421 101.727C35.7093 101.127 36.1104 100.659 36.6241 100.325C37.1412 99.9866 37.7444 99.8176 38.4338 99.8176C38.8315 99.8176 39.2243 99.8839 39.612 100.016C39.9998 100.149 40.3528 100.364 40.671 100.663C40.9892 100.958 41.2427 101.349 41.4316 101.836C41.6206 102.323 41.715 102.923 41.715 103.636V104.133H35.8287V103.119H40.5218C40.5218 102.688 40.4357 102.303 40.2633 101.965C40.0943 101.627 39.8523 101.36 39.5375 101.165C39.2259 100.969 38.858 100.872 38.4338 100.872C37.9664 100.872 37.5621 100.988 37.2207 101.22C36.8826 101.448 36.6225 101.747 36.4402 102.114C36.2579 102.482 36.1667 102.877 36.1667 103.298V103.974C36.1667 104.551 36.2662 105.039 36.465 105.44C36.6672 105.838 36.9473 106.141 37.3052 106.35C37.6632 106.556 38.0791 106.658 38.5531 106.658C38.8613 106.658 39.1397 106.615 39.3883 106.529C39.6402 106.44 39.8573 106.307 40.0396 106.131C40.2219 105.953 40.3628 105.73 40.4622 105.465L41.5957 105.783C41.4764 106.168 41.2759 106.506 40.9941 106.798C40.7124 107.086 40.3644 107.311 39.9501 107.474C39.5358 107.633 39.0701 107.712 38.5531 107.712ZM43.4998 107.553V99.917H44.6333V101.07H44.7129C44.8521 100.693 45.104 100.386 45.4686 100.151C45.8332 99.9153 46.2441 99.7977 46.7015 99.7977C46.7877 99.7977 46.8954 99.7993 47.0247 99.8026C47.1539 99.806 47.2517 99.8109 47.318 99.8176V101.011C47.2782 101.001 47.1871 100.986 47.0446 100.966C46.9054 100.943 46.7579 100.931 46.6021 100.931C46.2309 100.931 45.8994 101.009 45.6078 101.165C45.3194 101.317 45.0907 101.529 44.9217 101.801C44.756 102.07 44.6731 102.376 44.6731 102.721V107.553H43.4998ZM53.8196 102.96V107.553H52.6463V99.917H53.7798V101.11H53.8793C54.0582 100.722 54.33 100.411 54.6946 100.176C55.0592 99.9369 55.5298 99.8176 56.1065 99.8176C56.6236 99.8176 57.076 99.9236 57.4638 100.136C57.8516 100.345 58.1532 100.663 58.3686 101.09C58.584 101.515 58.6918 102.051 58.6918 102.701V107.553H57.5185V102.781C57.5185 102.181 57.3627 101.713 57.0511 101.379C56.7396 101.041 56.312 100.872 55.7685 100.872C55.3939 100.872 55.0592 100.953 54.7642 101.115C54.4725 101.278 54.2422 101.515 54.0732 101.826C53.9041 102.138 53.8196 102.515 53.8196 102.96ZM63.938 107.712C63.2486 107.712 62.6438 107.548 62.1234 107.22C61.6064 106.892 61.202 106.433 60.9103 105.843C60.622 105.253 60.4778 104.564 60.4778 103.775C60.4778 102.979 60.622 102.285 60.9103 101.692C61.202 101.099 61.6064 100.638 62.1234 100.31C62.6438 99.9816 63.2486 99.8176 63.938 99.8176C64.6274 99.8176 65.2306 99.9816 65.7477 100.31C66.2681 100.638 66.6724 101.099 66.9608 101.692C67.2524 102.285 67.3983 102.979 67.3983 103.775C67.3983 104.564 67.2524 105.253 66.9608 105.843C66.6724 106.433 66.2681 106.892 65.7477 107.22C65.2306 107.548 64.6274 107.712 63.938 107.712ZM63.938 106.658C64.4617 106.658 64.8926 106.524 65.2306 106.256C65.5687 105.987 65.819 105.634 65.9814 105.197C66.1438 104.759 66.225 104.285 66.225 103.775C66.225 103.265 66.1438 102.789 65.9814 102.348C65.819 101.907 65.5687 101.551 65.2306 101.279C64.8926 101.007 64.4617 100.872 63.938 100.872C63.4144 100.872 62.9835 101.007 62.6454 101.279C62.3074 101.551 62.0571 101.907 61.8947 102.348C61.7323 102.789 61.6511 103.265 61.6511 103.775C61.6511 104.285 61.7323 104.759 61.8947 105.197C62.0571 105.634 62.3074 105.987 62.6454 106.256C62.9835 106.524 63.4144 106.658 63.938 106.658ZM72.5103 99.917V100.911H68.5529V99.917H72.5103ZM69.7063 98.0875H70.8796V105.366C70.8796 105.697 70.9277 105.946 71.0238 106.112C71.1232 106.274 71.2492 106.383 71.4016 106.44C71.5574 106.493 71.7215 106.519 71.8938 106.519C72.0231 106.519 72.1291 106.513 72.212 106.499C72.2949 106.483 72.3612 106.47 72.4109 106.46L72.6495 107.514C72.57 107.543 72.4589 107.573 72.3164 107.603C72.1739 107.636 71.9933 107.653 71.7745 107.653C71.4431 107.653 71.1183 107.582 70.8001 107.439C70.4852 107.296 70.2234 107.079 70.0146 106.788C69.8091 106.496 69.7063 106.128 69.7063 105.684V98.0875ZM81.6133 99.917V100.911H77.4968V99.917H81.6133ZM78.7298 107.553V98.863C78.7298 98.4255 78.8325 98.0609 79.038 97.7693C79.2435 97.4776 79.5103 97.2589 79.8384 97.113C80.1665 96.9672 80.5129 96.8943 80.8775 96.8943C81.1658 96.8943 81.4012 96.9175 81.5835 96.9639C81.7657 97.0103 81.9016 97.0534 81.9911 97.0931L81.6531 98.1073C81.5934 98.0875 81.5105 98.0626 81.4045 98.0328C81.3017 98.0029 81.1658 97.988 80.9968 97.988C80.609 97.988 80.329 98.0858 80.1566 98.2813C79.9876 98.4769 79.9031 98.7636 79.9031 99.1414V107.553H78.7298ZM86.0455 107.712C85.3561 107.712 84.7512 107.548 84.2308 107.22C83.7138 106.892 83.3094 106.433 83.0178 105.843C82.7294 105.253 82.5852 104.564 82.5852 103.775C82.5852 102.979 82.7294 102.285 83.0178 101.692C83.3094 101.099 83.7138 100.638 84.2308 100.31C84.7512 99.9816 85.3561 99.8176 86.0455 99.8176C86.7348 99.8176 87.3381 99.9816 87.8551 100.31C88.3755 100.638 88.7798 101.099 89.0682 101.692C89.3598 102.285 89.5057 102.979 89.5057 103.775C89.5057 104.564 89.3598 105.253 89.0682 105.843C88.7798 106.433 88.3755 106.892 87.8551 107.22C87.3381 107.548 86.7348 107.712 86.0455 107.712ZM86.0455 106.658C86.5691 106.658 87 106.524 87.3381 106.256C87.6761 105.987 87.9264 105.634 88.0888 105.197C88.2512 104.759 88.3324 104.285 88.3324 103.775C88.3324 103.265 88.2512 102.789 88.0888 102.348C87.9264 101.907 87.6761 101.551 87.3381 101.279C87 101.007 86.5691 100.872 86.0455 100.872C85.5218 100.872 85.0909 101.007 84.7528 101.279C84.4148 101.551 84.1645 101.907 84.0021 102.348C83.8397 102.789 83.7585 103.265 83.7585 103.775C83.7585 104.285 83.8397 104.759 84.0021 105.197C84.1645 105.634 84.4148 105.987 84.7528 106.256C85.0909 106.524 85.5218 106.658 86.0455 106.658ZM96.1092 104.431V99.917H97.2825V107.553H96.1092V106.261H96.0297C95.8507 106.649 95.5723 106.978 95.1944 107.25C94.8166 107.519 94.3393 107.653 93.7626 107.653C93.2853 107.653 92.8611 107.548 92.4899 107.34C92.1187 107.127 91.827 106.809 91.6149 106.385C91.4028 105.957 91.2967 105.419 91.2967 104.769V99.917H92.47V104.69C92.47 105.247 92.6258 105.691 92.9373 106.022C93.2522 106.354 93.6532 106.519 94.1404 106.519C94.4321 106.519 94.7288 106.445 95.0304 106.296C95.3353 106.146 95.5905 105.918 95.796 105.609C96.0048 105.301 96.1092 104.908 96.1092 104.431ZM100.605 102.96V107.553H99.4315V99.917H100.565V101.11H100.664C100.843 100.722 101.115 100.411 101.48 100.176C101.844 99.9369 102.315 99.8176 102.892 99.8176C103.409 99.8176 103.861 99.9236 104.249 100.136C104.637 100.345 104.938 100.663 105.154 101.09C105.369 101.515 105.477 102.051 105.477 102.701V107.553H104.304V102.781C104.304 102.181 104.148 101.713 103.836 101.379C103.525 101.041 103.097 100.872 102.554 100.872C102.179 100.872 101.844 100.953 101.549 101.115C101.258 101.278 101.027 101.515 100.858 101.826C100.689 102.138 100.605 102.515 100.605 102.96ZM110.504 107.712C109.868 107.712 109.306 107.552 108.819 107.23C108.332 106.905 107.951 106.448 107.676 105.858C107.401 105.265 107.263 104.564 107.263 103.755C107.263 102.953 107.401 102.257 107.676 101.667C107.951 101.077 108.334 100.621 108.824 100.3C109.315 99.9783 109.881 99.8176 110.524 99.8176C111.021 99.8176 111.414 99.9004 111.703 100.066C111.994 100.229 112.216 100.414 112.369 100.623C112.525 100.828 112.646 100.997 112.732 101.13H112.831V97.3715H114.004V107.553H112.871V106.38H112.732C112.646 106.519 112.523 106.695 112.364 106.907C112.205 107.116 111.978 107.303 111.683 107.469C111.388 107.631 110.995 107.712 110.504 107.712ZM110.664 106.658C111.134 106.658 111.532 106.536 111.857 106.291C112.182 106.042 112.428 105.699 112.597 105.261C112.767 104.821 112.851 104.312 112.851 103.735C112.851 103.165 112.768 102.666 112.602 102.239C112.437 101.808 112.191 101.473 111.867 101.234C111.542 100.993 111.141 100.872 110.664 100.872C110.166 100.872 109.752 100.999 109.421 101.254C109.093 101.506 108.846 101.849 108.68 102.283C108.517 102.714 108.436 103.198 108.436 103.735C108.436 104.279 108.519 104.773 108.685 105.217C108.854 105.658 109.102 106.009 109.431 106.271C109.762 106.529 110.173 106.658 110.664 106.658Z" fill="black" fill-opacity="0.49"/>
</svg>
